<?xml version="1.0" encoding="UTF-8"?>
<!DOCTYPE svg PUBLIC "-//W3C//DTD SVG 1.1//EN" "http://www.w3.org/Graphics/SVG/1.1/DTD/svg11.dtd">
<svg xmlns="http://www.w3.org/2000/svg" version="1.1" width="144px" height="144px" style="shape-rendering:geometricPrecision; text-rendering:geometricPrecision; image-rendering:optimizeQuality; fill-rule:evenodd; clip-rule:evenodd" xmlns:xlink="http://www.w3.org/1999/xlink">
<g><path fill="#3b82f6" fill-opacity="0.996" stroke="#3b82f6" stroke-width="0.5" stroke-opacity="0.996" d="M 7.04,71.01 c 0.67,-1.76 1.87,-2.97 3.62,-3.63 c 3.88,-0.1 7.74,-0.31 11.58,-0.62 c 0.58,-2.94 1.26,-5.88 2.03,-8.83 c 5.44,-16.63 16.43,-27.77 32.98,-33.44 c 3.16,-0.9 6.33,-1.65 9.52,-2.25 c 1.79,-4.29 -2.49,-13.98 4.73,-15.2 c 7.43,0.04 4.84,8.65 5.33,13.48 c 0,0.61 0.14,1.18 0.4,1.72 c 2.95,0.58 5.89,1.26 8.84,2.03 c 16.63,5.44 27.77,16.43 33.44,32.98 c 0.9,3.16 1.65,6.33 2.25,9.51 c 1.93,0.82 7.4,0.18 9.74,0.39 c 6.34,0.22 7.5,7.73 1.54,9.44 c -3.77,0.13 -7.53,0.35 -11.28,0.65 c -0.58,2.94 -1.26,5.88 -2.03,8.83 c -5.44,16.63 -16.43,27.77 -32.98,33.44 c -3.16,0.9 -6.33,1.65 -9.52,2.25 c -0.25,3.99 -0.54,7.99 -0.86,11.99 c -1.69,4.69 -7.62,4.31 -8.99,-0.7 c -0.64,-2.64 0.34,-9.28 -0.61,-11.29 c -2.95,-0.58 -5.89,-1.26 -8.84,-2.03 c -16.63,-5.44 -27.77,-16.43 -33.44,-32.98 c -0.9,-3.16 -1.65,-6.33 -2.25,-9.51 c -1.92,-0.83 -7.38,-0.16 -9.73,-0.41 c -3.62,-0.28 -5.44,-2.22 -5.47,-5.82 Z M 32.16,78.05 c 3.24,18.1 16.01,30.91 34.2,33.75 c 2.49,-1.1 -1.8,-9.67 4.14,-11.76 c 7.25,-1.29 6.33,5.74 6.34,10.5 c 0.13,0.98 0.68,1.4 1.65,1.26 c 17.95,-3.53 30.45,-16.03 33.31,-34.16 c -1.04,-2.37 -9.36,1.73 -11.81,-4.21 c -1.39,-6.97 6.01,-6.46 10.55,-6.3 c 0.98,-0.11 1.39,-0.65 1.26,-1.62 c -3.53,-17.95 -16.04,-30.45 -34.16,-33.32 c -2.44,0.99 1.71,9.42 -4.14,11.76 c -7.18,1.31 -6.35,-5.76 -6.35,-10.49 c -0.12,-0.98 -0.67,-1.4 -1.64,-1.26 c -17.95,3.53 -30.45,16.03 -33.31,34.16 c 0.99,2.39 8.81,-1.6 11.56,3.54 c 2.31,7.15 -5.6,7.26 -10.3,6.98 c -0.78,0.03 -1.21,0.42 -1.3,1.17 Z M 58.96,72 c 0.77,-15.27 20.58,-18.23 25.7,-3.32 c 3.18,21.07 -25.92,20.94 -25.7,3.32 Z"/></g>
</svg>
